<svg width="20" height="13" viewBox="0 0 20 13" fill="none" xmlns="http://www.w3.org/2000/svg">
<path d="M17.4664 0.619169H12.5658V1.98207H17.4858L17.4664 0.619169ZM16.4322 9.99518C16.0604 10.2415 15.6214 10.3665 15.1756 10.3528C14.8805 10.3836 14.5823 10.3531 14.2995 10.2633C14.0168 10.1735 13.7556 10.0263 13.5324 9.83086C13.1197 9.36291 12.9048 8.75296 12.9331 8.12964H19.332C19.3781 7.48062 19.3227 6.82837 19.1677 6.19645C19.0177 5.59524 18.7553 5.02785 18.3944 4.52423C18.0311 4.03571 17.5618 3.63584 17.0218 3.35464C16.421 3.05842 15.7584 2.90933 15.0886 2.91967C14.4587 2.91506 13.8342 3.03667 13.2521 3.27732C12.719 3.50204 12.236 3.83063 11.8312 4.24392C11.4275 4.66546 11.1149 5.16558 10.9129 5.71315C10.6961 6.30427 10.588 6.92975 10.5939 7.55935C10.584 8.19789 10.6887 8.83303 10.9032 9.43455C11.0854 9.97926 11.3746 10.4821 11.7538 10.9134C12.1462 11.337 12.6284 11.6673 13.1651 11.88C13.7635 12.1081 14.4 12.2196 15.0403 12.2087C15.9387 12.2367 16.8256 12.0015 17.5921 11.5321C18.3663 10.982 18.9236 10.1784 19.1677 9.26056H17.0315C16.9171 9.56421 16.7067 9.82217 16.4322 9.99518ZM13.1167 6.01279C13.192 5.7718 13.3169 5.54924 13.4833 5.35945C13.6498 5.16966 13.8542 5.01685 14.0833 4.91087C14.3868 4.77427 14.7173 4.70818 15.0499 4.71755C15.2903 4.69702 15.5322 4.72873 15.7591 4.81048C15.986 4.89223 16.1925 5.0221 16.3645 5.19118C16.693 5.59322 16.9037 6.07832 16.9735 6.59275H12.9621C12.9777 6.39632 13.0134 6.202 13.0684 6.01279H13.1167ZM8.00344 5.54882C8.4954 5.34397 8.92288 5.01 9.24069 4.58222C9.53282 4.12793 9.67794 3.59468 9.65632 3.055C9.67527 2.56284 9.5793 2.07304 9.37601 1.62443C9.20522 1.23578 8.93107 0.901441 8.5834 0.657833C8.21479 0.404558 7.79621 0.23317 7.35582 0.155201C6.83465 0.0458918 6.30307 -0.00596964 5.7706 0.000545506H0V12.1604H5.89625C6.43435 12.1608 6.9703 12.0925 7.49114 11.9574C7.98483 11.8297 8.45254 11.6171 8.87338 11.3291C9.28103 11.0466 9.61297 10.6681 9.83998 10.2272C10.0912 9.73399 10.2142 9.1855 10.1976 8.63228C10.2159 7.9467 10.0236 7.27199 9.64666 6.69908C9.24125 6.12291 8.63996 5.71403 7.95511 5.54882H8.00344ZM2.67748 2.07873H5.18097C5.41097 2.07845 5.64057 2.09785 5.86726 2.13673C6.07599 2.16766 6.27645 2.23996 6.45688 2.34938C6.6312 2.44799 6.77246 2.59597 6.86285 2.77468C6.9748 2.989 7.02816 3.22908 7.01751 3.47064C7.03552 3.67868 7.0037 3.88803 6.9247 4.08134C6.8457 4.27464 6.72178 4.44634 6.56321 4.58222C6.21728 4.82004 5.80335 4.93879 5.38396 4.92054H2.67748V2.07873ZM7.35582 9.27023C7.25651 9.46723 7.10633 9.63409 6.92085 9.75353C6.72782 9.87359 6.51514 9.95866 6.29256 10.0048C6.04517 10.0602 5.7921 10.0862 5.53861 10.0822H2.63882V6.74741H5.53861C6.03623 6.72562 6.52765 6.86457 6.94018 7.14371C7.12655 7.31096 7.27092 7.51975 7.3616 7.75317C7.45228 7.98659 7.48673 8.23808 7.46214 8.48728C7.48828 8.75299 7.45186 9.02112 7.35582 9.27023Z" fill="#3388BD"/>
</svg>
