<svg width="15" height="15" viewBox="0 0 15 15" fill="none" xmlns="http://www.w3.org/2000/svg">
<path d="M7.5 0C6.01664 0 4.56659 0.439867 3.33323 1.26398C2.09986 2.08809 1.13856 3.25943 0.570907 4.62987C0.00324963 6.00032 -0.145275 7.50832 0.144114 8.96317C0.433503 10.418 1.14781 11.7544 2.1967 12.8033C3.24559 13.8522 4.58197 14.5665 6.03682 14.8559C7.49168 15.1453 8.99968 14.9967 10.3701 14.4291C11.7406 13.8614 12.9119 12.9001 13.736 11.6668C14.5601 10.4334 15 8.98335 15 7.5C15 6.51508 14.806 5.53981 14.4291 4.62987C14.0522 3.71993 13.4997 2.89314 12.8033 2.1967C12.1069 1.50026 11.2801 0.947813 10.3701 0.570903C9.46018 0.193993 8.48491 0 7.5 0ZM7.5 1.5C9.04105 1.49938 10.5223 2.0962 11.6325 3.165C10.4865 3.83715 9.27216 4.38524 8.01 4.8C7.38187 3.71762 6.66171 2.69133 5.8575 1.7325C6.39147 1.57875 6.94433 1.50049 7.5 1.5ZM4.4175 2.3625C5.20326 3.26138 5.90848 4.2276 6.525 5.25C5.05283 5.61555 3.54188 5.8019 2.025 5.805H1.755C2.1804 4.36473 3.13045 3.13635 4.4175 2.3625ZM3 11.4825C2.02407 10.3866 1.48956 8.96745 1.5 7.5C1.5 7.425 1.5 7.35 1.5 7.2825H2.01C3.78553 7.26662 5.55105 7.01441 7.26 6.5325C7.5 6.99 7.725 7.4625 7.9425 7.95C6.77362 8.36206 5.68501 8.97361 4.725 9.75749L4.5 9.93749C3.96534 10.4177 3.46417 10.9339 3 11.4825ZM7.5 13.5C6.30457 13.5026 5.13615 13.1445 4.1475 12.4725C4.51263 12.0537 4.90338 11.6579 5.3175 11.2875L5.5575 11.085C6.44487 10.3387 7.46173 9.7616 8.5575 9.38249C9.0085 10.602 9.35966 11.8561 9.6075 13.1325C8.93235 13.379 8.21873 13.5034 7.5 13.5ZM10.9725 12.3825C10.7271 11.2474 10.4064 10.1299 10.0125 9.03749H10.2675C10.2971 9.03019 10.3279 9.03019 10.3575 9.03749H10.44H10.515H10.875C11.6643 9.03975 12.4476 9.17411 13.1925 9.43499C12.7832 10.6278 12.0059 11.6598 10.9725 12.3825ZM10.875 7.5C10.7175 7.5 10.56 7.5 10.41 7.5C10.3129 7.48776 10.2146 7.48776 10.1175 7.5C9.91365 7.51251 9.71077 7.53756 9.51 7.575H9.435C9.2175 7.0725 8.9925 6.585 8.745 6.075C10.088 5.61379 11.3778 5.01036 12.5925 4.275C13.1951 5.24202 13.5098 6.36063 13.5 7.5C13.5 7.6275 13.5 7.755 13.5 7.88249C12.65 7.62016 11.7645 7.49113 10.875 7.5Z" fill="#3388BD"/>
</svg>
