<svg width="19" height="15" viewBox="0 0 19 15" fill="none" xmlns="http://www.w3.org/2000/svg">
<path d="M18.4261 1.7971C17.7336 2.09753 17.0012 2.29613 16.2518 2.38673C17.0425 1.9144 17.6349 1.17133 17.9194 0.295371C17.1764 0.737655 16.3631 1.04927 15.5148 1.21668C14.9478 0.601771 14.1927 0.192457 13.368 0.0529305C12.5432 -0.0865964 11.6955 0.051555 10.9578 0.445718C10.2201 0.839881 9.63402 1.46776 9.29158 2.23088C8.94914 2.994 8.86967 3.8492 9.06564 4.66236C7.56339 4.58637 6.09392 4.19521 4.75269 3.51428C3.41147 2.83335 2.22849 1.87789 1.28061 0.709958C0.948149 1.29054 0.773453 1.94803 0.773896 2.61706C0.772717 3.23837 0.92519 3.85033 1.21774 4.39846C1.51029 4.94659 1.93384 5.41387 2.45067 5.75871C1.84996 5.74236 1.26208 5.58117 0.737044 5.28884V5.33491C0.741546 6.20544 1.0466 7.0477 1.6006 7.71921C2.1546 8.39073 2.92354 8.85028 3.77735 9.02013C3.44868 9.12015 3.10745 9.17289 2.76391 9.17675C2.52612 9.17397 2.28891 9.15241 2.05451 9.11226C2.29765 9.86111 2.76817 10.5155 3.40061 10.9845C4.03304 11.4535 4.79592 11.7136 5.58311 11.7288C4.25385 12.7747 2.61271 13.3455 0.921305 13.3503C0.613345 13.3513 0.30563 13.3328 0 13.295C1.72692 14.41 3.7394 15.0019 5.79501 14.9994C7.21353 15.0141 8.62078 14.7461 9.93454 14.2108C11.2483 13.6756 12.4422 12.884 13.4466 11.8822C14.451 10.8803 15.2457 9.68843 15.7843 8.37605C16.3229 7.06366 16.5946 5.65711 16.5835 4.23856C16.5835 4.08193 16.5835 3.9161 16.5835 3.75026C17.3064 3.21113 17.93 2.5502 18.4261 1.7971Z" fill="#3388BD"/>
</svg>
