<svg width="60" height="60" viewBox="0 0 60 60" fill="none" xmlns="http://www.w3.org/2000/svg">
<path fill-rule="evenodd" clip-rule="evenodd" d="M24.7699 36.65V22.2196C29.9497 24.6302 33.9613 26.9588 38.706 29.4693C34.7927 31.6157 29.9497 34.0241 24.7699 36.65ZM53.6366 15.0427C52.7431 13.8785 51.2203 12.9722 49.599 12.6722C44.8337 11.7772 15.1046 11.7747 10.3418 12.6722C9.04168 12.9132 7.88397 13.4959 6.88946 14.4011C2.69906 18.2477 4.01213 38.8758 5.02218 42.2172C5.44692 43.6636 5.99599 44.7067 6.68749 45.3913C7.5784 46.2966 8.79821 46.9199 10.1993 47.1994C14.123 48.0021 34.3369 48.4508 49.5161 47.3199C50.9146 47.0789 52.1526 46.4355 53.129 45.4918C57.0034 41.6606 56.7393 19.8741 53.6366 15.0427Z" fill="#3498DB"/>
</svg>
