<svg width="14" height="20" viewBox="0 0 14 20" fill="none" xmlns="http://www.w3.org/2000/svg">
<path fill-rule="evenodd" clip-rule="evenodd" d="M6.99998 0C10.87 0 14 3.13 14 7C14 12.25 6.99998 20 6.99998 20C6.99998 20 -1.52588e-05 12.25 -1.52588e-05 7C-1.52588e-05 3.13 3.12998 0 6.99998 0ZM1.99999 7C1.99999 9.85 4.91999 14.21 6.99999 16.88C9.11999 14.19 12 9.88 12 7C12 4.24 9.75999 2 6.99999 2C4.23999 2 1.99999 4.24 1.99999 7ZM6.99999 9.5C5.61927 9.5 4.49999 8.38071 4.49999 7C4.49999 5.61929 5.61927 4.5 6.99999 4.5C8.3807 4.5 9.49999 5.61929 9.49999 7C9.49999 8.38071 8.3807 9.5 6.99999 9.5Z" fill="white"/>
</svg>
