<svg width="18" height="19" viewBox="0 0 18 19" fill="none" xmlns="http://www.w3.org/2000/svg">
<path fill-rule="evenodd" clip-rule="evenodd" d="M3.54496 2.97644C3.60495 3.86644 3.75491 4.73644 3.99486 5.56644L2.79512 6.76644C2.38522 5.56644 2.12527 4.29644 2.03529 2.97644H3.54496ZM13.405 14.9966C14.2548 15.2366 15.1246 15.3866 16.0044 15.4466V16.9366C14.6847 16.8466 13.415 16.5866 12.2053 16.1866L13.405 14.9966ZM4.50531 0.97644H1.00531C0.45531 0.97644 0.00531006 1.42644 0.00531006 1.97644C0.00531006 11.3664 7.61531 18.9764 17.0053 18.9764C17.5553 18.9764 18.0053 18.5264 18.0053 17.9764V14.4864C18.0053 13.9364 17.5553 13.4864 17.0053 13.4864C15.7653 13.4864 14.5553 13.2864 13.4353 12.9164C13.3353 12.8764 13.2253 12.8664 13.1253 12.8664C12.8653 12.8664 12.6153 12.9664 12.4153 13.1564L10.2153 15.3564C7.38531 13.9064 5.06531 11.5964 3.62531 8.76644L5.82531 6.56644C6.10531 6.28644 6.18531 5.89644 6.07531 5.54644C5.70531 4.42644 5.50531 3.22644 5.50531 1.97644C5.50531 1.42644 5.05531 0.97644 4.50531 0.97644Z" fill="white"/>
</svg>
