<svg width="16" height="16" viewBox="0 0 16 16" fill="none" xmlns="http://www.w3.org/2000/svg">
<path d="M5.72245 2.72642C6.73603 0.908806 7.24242 0 8 0C8.75758 0 9.26397 0.908806 10.2775 2.72642L10.5399 3.19682C10.8279 3.71362 10.9719 3.97203 11.1959 4.14243C11.4199 4.31283 11.6999 4.37603 12.2599 4.50243L12.7687 4.61763C14.7366 5.06323 15.7198 5.28563 15.9542 6.03844C16.1878 6.79044 15.5174 7.57525 14.1759 9.14406L13.8287 9.54966C13.4479 9.99526 13.2567 10.2185 13.1711 10.4937C13.0855 10.7697 13.1143 11.0673 13.1719 11.6617L13.2247 12.2033C13.4271 14.2969 13.5287 15.3433 12.9159 15.8081C12.3031 16.2729 11.3815 15.8489 9.53996 15.0009L9.06237 14.7817C8.53919 14.5401 8.27759 14.4201 8 14.4201C7.72241 14.4201 7.46081 14.5401 6.93762 14.7817L6.46084 15.0009C4.61848 15.8489 3.6969 16.2729 3.08492 15.8089C2.47133 15.3433 2.57293 14.2969 2.77532 12.2033L2.82812 11.6625C2.88572 11.0673 2.91452 10.7697 2.82812 10.4945C2.74332 10.2185 2.55213 9.99526 2.17134 9.55046L1.82415 9.14406C0.482577 7.57605 -0.187808 6.79124 0.0457869 6.03844C0.279381 5.28563 1.26416 5.06243 3.23211 4.61763L3.7409 4.50243C4.30009 4.37603 4.57928 4.31283 4.80408 4.14243C5.02887 3.97203 5.17207 3.71362 5.46006 3.19682L5.72245 2.72642Z" fill="#FF8552"/>
</svg>
