<svg xmlns="http://www.w3.org/2000/svg" viewBox="0 0 188.23 188.24"><defs><style>.cls-1{fill:#203b72;}.cls-2{fill:#149ee9;}</style></defs><g id="Layer_2" data-name="Layer 2"><g id="Layer_1-2" data-name="Layer 1"><path class="cls-1" d="M21.69,0h17.4a5.37,5.37,0,0,1,5.73,5.44,5.36,5.36,0,0,1-5.69,5.47c-9,0-18,0-27.06,0-1,0-1.18.29-1.17,1.21q0,13.61,0,27.2a5.45,5.45,0,0,1-7.85,5,5,5,0,0,1-3-4.71q0-18,0-36A3.62,3.62,0,0,1,3.79,0h17.9Z"/><path class="cls-1" d="M166.6,0h17.47c2.69,0,4.15,1.43,4.15,4.11q0,17.61,0,35.23a5.37,5.37,0,0,1-5.46,5.49,5.49,5.49,0,0,1-5.45-5.57q0-13.69,0-27.4c0-.78-.2-1-1-1q-13.71,0-27.41,0a5.3,5.3,0,0,1-5.54-5.4A5.32,5.32,0,0,1,148.92,0c5.89,0,11.79,0,17.68,0Z"/><path class="cls-1" d="M188.22,166.67c0,5.92,0,11.83,0,17.75a3.62,3.62,0,0,1-3.78,3.82H148.8a5.37,5.37,0,0,1-5.4-5.28,5.26,5.26,0,0,1,5.28-5.57q13.69-.06,27.4,0c1,0,1.27-.29,1.26-1.29,0-9,0-18,0-27.05a5.48,5.48,0,0,1,8.55-4.67,5.16,5.16,0,0,1,2.36,4.55Z"/><path class="cls-1" d="M21.69,188.24H4.08A3.7,3.7,0,0,1,0,184.19q0-17.55,0-35.09a5.34,5.34,0,0,1,5.65-5.65,5.47,5.47,0,0,1,5.27,5.78c0,9.07,0,18.13,0,27.2,0,.8.24.95,1,.95q13.69,0,27.4,0a5.44,5.44,0,1,1-.14,10.87Z"/><path class="cls-2" d="M148.06,145.7a2.17,2.17,0,0,1-.06.39H40.19v-.86c0-15.11-.07-9.8,0-24.91.07-9.67,4.22-17.27,12.27-22.65,4.52-3,9.61-4.14,15-4.31,2.53-.08,4.53.89,6.64,1.92a45.37,45.37,0,0,0,42.69-1.38,3.37,3.37,0,0,1,1.45-.42,29.09,29.09,0,0,1,14.16,2.45A27,27,0,0,1,148,120.49C148.06,135.7,148.06,130.49,148.06,145.7Z"/><path class="cls-2" d="M127.47,55.1A33.17,33.17,0,1,1,94.26,21.73,33.24,33.24,0,0,1,127.47,55.1Z"/></g></g></svg>