<?xml version="1.0" encoding="utf-8"?>
<!-- Generator: Adobe Illustrator 25.0.1, SVG Export Plug-In . SVG Version: 6.00 Build 0)  -->
<svg version="1.1" id="Layer_1" xmlns="http://www.w3.org/2000/svg" xmlns:xlink="http://www.w3.org/1999/xlink" x="0px" y="0px"
	 viewBox="0 0 202.9 210" style="enable-background:new 0 0 202.9 210;" xml:space="preserve">
<style type="text/css">
	.st0{fill:none;stroke:#203B72;stroke-width:10;stroke-linecap:round;stroke-linejoin:round;}
	.st1{fill:none;stroke:#1E81CE;stroke-width:10;stroke-linecap:round;stroke-linejoin:round;}
</style>
<g id="Layer_2_1_">
	<g id="Icons">
		<path class="st0" d="M49.4,50.7h104.1c3.5,0,6.3,2.8,6.3,6.3v77.6c0,3.5-2.8,6.3-6.3,6.3H49.4c-3.5,0-6.3-2.8-6.3-6.3V57
			C43.2,53.5,46,50.7,49.4,50.7z"/>
		<path class="st0" d="M139.8,50.7V18.8c0-7.6-6.2-13.8-13.8-13.8c0,0,0,0,0,0H76.9c-7.6,0-13.8,6.2-13.8,13.8v31.9"/>
		<circle class="st0" cx="101.5" cy="95.8" r="21.6"/>
		<line class="st1" x1="14.7" y1="171.4" x2="34" y2="205"/>
		<line class="st1" x1="34.4" y1="171.6" x2="14.4" y2="204.8"/>
		<line class="st1" x1="43.8" y1="188.3" x2="5" y2="188.1"/>
		<line class="st1" x1="111.1" y1="171.4" x2="91.8" y2="205"/>
		<line class="st1" x1="91.5" y1="171.6" x2="111.5" y2="204.8"/>
		<line class="st1" x1="82.1" y1="188.3" x2="120.8" y2="188.1"/>
		<line class="st1" x1="188.2" y1="171.4" x2="168.9" y2="205"/>
		<line class="st1" x1="168.6" y1="171.6" x2="188.5" y2="204.8"/>
		<line class="st1" x1="159.2" y1="188.3" x2="197.9" y2="188.1"/>
	</g>
</g>
</svg>
