<?xml version="1.0" encoding="utf-8"?>
<!-- Generator: Adobe Illustrator 25.0.1, SVG Export Plug-In . SVG Version: 6.00 Build 0)  -->
<svg version="1.1" id="Layer_1" xmlns="http://www.w3.org/2000/svg" xmlns:xlink="http://www.w3.org/1999/xlink" x="0px" y="0px"
	 viewBox="0 0 210 188.4" style="enable-background:new 0 0 210 188.4;" xml:space="preserve">
<style type="text/css">
	.st0{fill:none;stroke:#1E81CE;stroke-width:10;stroke-linecap:round;stroke-linejoin:round;}
	.st1{fill:none;stroke:#203B72;stroke-width:10;stroke-linecap:round;stroke-linejoin:round;}
</style>
<g id="Layer_2_1_">
	<g id="Icons">
		<path class="st0" d="M5,86.4V85C4.6,40.8,40.1,4.7,84.2,4.2c44.2-0.4,80.3,35.1,80.8,79.2c0,3.4-0.1,6.7-0.5,10.1l-0.8,7.5"/>
		<line class="st0" x1="128.1" y1="136.4" x2="117.5" y2="166.4"/>
		<path class="st0" d="M11.7,123.7c16.8-10.4,16.8-32.5,23.9-55.5c9.6-20.6,24.8-32.8,47.6-34c8.4-0.3,16.7,1.5,24.2,5.3
			c28.7,14.3,39.2,37.2,30.4,69.1"/>
		<path class="st0" d="M87,171.6c13.4-27,23.6-54,25.5-81.3c1.4-20.8-19.5-37-38.8-29.3c-0.9,0.3-1.7,0.7-2.6,1.2
			c-7.4,3.9-12.5,11.3-13.4,19.6c-3.3,26-12.1,49-29.2,67.2"/>
		<path class="st0" d="M55.3,166.4c17.1-23,27.3-48.9,29.7-78"/>
		<path class="st1" d="M166.4,183.4c39-10.9,40-40.7,38.1-71.9l-38.1-11.2l-38.1,11.2C126.4,142.7,127.3,172.5,166.4,183.4z"/>
		<polyline class="st1" points="155.9,142.7 162.3,149.1 176.8,134.6 		"/>
	</g>
</g>
</svg>
