<svg xmlns="http://www.w3.org/2000/svg" viewBox="0 0 217.08 226.07"><defs><style>.cls-1{fill:#203b72;}.cls-2{fill:#149ee9;}</style></defs><g id="Layer_2" data-name="Layer 2"><g id="Layer_1-2" data-name="Layer 1"><path class="cls-1" d="M175.09,171.55a113.2,113.2,0,0,1-22.31,22.11A164.53,164.53,0,0,1,119,213c-2.87,1.26-5.83,2.32-8.66,3.66-1.61.76-2.91.26-4.33-.31-13.31-5.29-26.08-11.62-37.83-19.92a115,115,0,0,1-26.13-24.92H31.86c9.8,14.95,22.93,26.55,38.08,36.11A198.49,198.49,0,0,0,105.44,225c1.29.49,2.51,1.49,4.11.82,4.43-1.86,8.92-3.55,13.32-5.47a170.32,170.32,0,0,0,34.84-20,115.84,115.84,0,0,0,27.51-28.85ZM198,29.67c-8-1.08-16.13-1.91-24.14-3.23a156.32,156.32,0,0,1-35.09-10.29C128.37,11.75,118.66,6,109,.17a1.08,1.08,0,0,0-.93-.1C97.35,6.67,86.47,13,74.69,17.58A166.53,166.53,0,0,1,40.14,27c-7.09,1.13-14.24,1.85-21.37,2.74-2.57.32-3.33,1.11-3.33,3.53q0,11.1,0,22.19a28.51,28.51,0,0,1,7.14-.9h1.07V38.66c0-.71-.05-1.21,1-1.3a202.6,202.6,0,0,0,43.82-8.73,165.83,165.83,0,0,0,33.59-15.31c1.79-1.07,3.58-2.16,5.44-3.1a2.32,2.32,0,0,1,1.86,0c6.58,3.5,13,7.31,19.71,10.57A154.3,154.3,0,0,0,168,33.71c8.22,1.55,16.56,2.48,24.83,3.73.24,0,.56.58.57.88q0,8.1,0,16.21h1a28.53,28.53,0,0,1,7.15.9V33.82C201.63,30.53,201.3,30.12,198,29.67Z"/><path class="cls-2" d="M47.59,103.71c1.13-1.88,2.16-3.59,3.18-5.3,1.19-2,2.31-4,3.57-5.93a4.61,4.61,0,0,1,6.23-1.3A4.41,4.41,0,0,1,62,97.31c-2,3.44-4.07,6.85-6.1,10.27-.14.23-.25.49-.44.88H68.64a4.16,4.16,0,0,1,4,2.58,4.48,4.48,0,0,1-4,6.48c-3.9.06-7.8,0-11.7,0H55.41l3.32,5.57c1.12,1.89,2.26,3.76,3.37,5.65a4.56,4.56,0,0,1-7.71,4.85c-2.21-3.56-4.32-7.17-6.47-10.76a6.2,6.2,0,0,0-.39-.52c-1.6,2.66-3.15,5.23-4.69,7.82-.65,1.08-1.26,2.2-1.94,3.27a4.56,4.56,0,1,1-7.75-4.81l6.56-11c-.48,0-.78-.07-1.07-.07-4,0-8,0-12,0a4.53,4.53,0,1,1-.06-9c3.64,0,7.28,0,10.92,0H39.8c-1.54-2.6-2.94-4.94-4.34-7.28-.77-1.29-1.62-2.53-2.34-3.85a4.42,4.42,0,0,1,1.56-6.18A4.55,4.55,0,0,1,41,92.69C43.18,96.24,45.29,99.86,47.59,103.71Z"/><path class="cls-2" d="M169.52,122.28c-2.18,3.66-4.26,7.18-6.37,10.69-1.54,2.58-4.18,3.35-6.55,1.93s-2.79-4.12-1.26-6.66c2.1-3.47,4.17-7,6.35-10.62-.49,0-.81-.08-1.13-.08H148.94c-2.95,0-4.9-1.8-5-4.5s1.89-4.53,4.86-4.57c3.64,0,7.28,0,10.92,0h2c-1.81-3-3.49-5.71-5.07-8.48a17.87,17.87,0,0,1-2.16-4.55,3.94,3.94,0,0,1,2.71-4.58,4.31,4.31,0,0,1,5.35,1.41c2.23,3.47,4.32,7,6.44,10.58.42.71.61.76,1.05,0,2-3.46,4-6.93,6.17-10.33a4.6,4.6,0,0,1,6.13-1.43,4.45,4.45,0,0,1,1.6,6.23c-2,3.42-4,6.81-6.05,10.2-.14.24-.26.49-.5.93h1.86c3.73,0,7.46,0,11.19,0a4.39,4.39,0,0,1,4.51,4.48,4.34,4.34,0,0,1-4.47,4.59c-4.3,0-8.6,0-13.14,0,.55.94,1,1.73,1.45,2.5,1.72,2.88,3.45,5.74,5.16,8.62a4.56,4.56,0,0,1-7.77,4.76c-2.14-3.5-4.21-7-6.31-10.56C169.84,122.72,169.74,122.59,169.52,122.28Z"/><path class="cls-2" d="M100.8,108.47c-1.79-3-3.41-5.67-5-8.37-.62-1-1.34-2-1.87-3.12a4.41,4.41,0,0,1,1.81-5.85,4.5,4.5,0,0,1,6.23,1.54c1.65,2.58,3.17,5.23,4.75,7.86l1.89,3.16,2.64-4.39c1.36-2.28,2.68-4.58,4.12-6.82a4.55,4.55,0,0,1,6.13-1.33A4.47,4.47,0,0,1,123,97.34c-2,3.41-4,6.8-6.07,10.2-.14.24-.28.48-.52.91h4c3,0,6,0,8.93,0a4.54,4.54,0,1,1,0,9.07c-3.76,0-7.51,0-11.27,0h-1.76l4,6.76c.89,1.49,1.78,3,2.66,4.47a4.54,4.54,0,0,1-7.68,4.83c-2.19-3.53-4.28-7.13-6.42-10.69-.1-.16-.22-.31-.44-.6-1.95,3.31-3.88,6.48-5.72,9.7s-3.59,4.15-6.2,3.29a4.51,4.51,0,0,1-2.49-6.62q3-5.15,6.11-10.27c.12-.22.23-.45.46-.87H99.08c-3.78,0-7.57,0-11.35,0A4.45,4.45,0,0,1,83.07,113a4.38,4.38,0,0,1,4.63-4.54c3.7,0,7.39,0,11.09,0Z"/><path class="cls-1" d="M194.48,60.75H22.59A22.59,22.59,0,0,0,0,83.34v59.39a22.6,22.6,0,0,0,22.59,22.61H194.48a22.6,22.6,0,0,0,22.6-22.61V83.34A22.59,22.59,0,0,0,194.48,60.75Zm12.77,82a12.78,12.78,0,0,1-12.77,12.77H22.59A12.78,12.78,0,0,1,9.83,142.73V83.34A12.78,12.78,0,0,1,22.59,70.58H194.48a12.78,12.78,0,0,1,12.77,12.76Z"/></g></g></svg>