<svg xmlns="http://www.w3.org/2000/svg" viewBox="0 0 156.5 214.59"><defs><style>.cls-1{fill:#203b72;}.cls-2{fill:#149ee9;}</style></defs><g id="Layer_2" data-name="Layer 2"><g id="Layer_1-2" data-name="Layer 1"><path class="cls-1" d="M0,107.29V19.22c0-8,3.48-13.95,10.67-17.41A17.79,17.79,0,0,1,18.12.09Q61.56-.08,105,0a18.33,18.33,0,0,1,18.1,18.21q0,24.32,0,48.62a.94.94,0,0,1-.64.67c-2,0-4,.06-6,0-.22,0-.6-.5-.6-.77q0-18.6,0-37.21c0-1.65-.37-2-2-2q-52.32,0-104.63,0c-1.36,0-1.95.52-1.95,1.92q0,75.78,0,151.57c0,1.5.89,1.7,2.08,1.7H113.68c1.86,0,2.17-.31,2.17-2.16q0-20.55,0-41.08a1,1,0,0,1,.7-.69c1.83-.06,3.66,0,5.49-.07.81,0,1.07.18,1.06,1q0,16.94,0,33.89c0,7.33,0,14.65,0,22,0,8-3.69,13.75-10.79,17.31a18.7,18.7,0,0,1-8.62,1.68l-84.7,0c-9.39,0-16.94-6-18.61-15a37.54,37.54,0,0,1-.36-6.8Q0,150,0,107.29ZM61.47,18.21H77.53a3.55,3.55,0,0,0,3.87-3.48c0-2-1.52-3.51-3.83-3.51q-15.94,0-31.9,0c-2.4,0-4,1.41-4,3.44s1.55,3.54,4,3.54Zm0,186v0c2.27,0,4.55.06,6.83,0a6,6,0,0,0,5.39-5.56c.12-3.27-1.92-6.13-4.89-6.26-4.73-.2-9.49-.24-14.22-.05-3.27.13-5.32,3-5.17,6.52a6,6,0,0,0,5.72,5.38C57.24,204.29,59.35,204.26,61.47,204.26Z"/><path class="cls-2" d="M90.44,72.81h53.83c6.13,0,10.68,3.31,11.89,8.71a15.66,15.66,0,0,1,.32,3.35q0,18.5,0,37c0,6.82-4.81,11.61-11.62,11.61H35.73a11.05,11.05,0,0,1-11.38-11.19q-.08-19.2,0-38.4a10.93,10.93,0,0,1,10.56-11c8.62-.19,17.24-.08,25.86-.09H90.44ZM59.73,98.91l-.38-.26c0-2.13,0-4.27,0-6.4a1.68,1.68,0,0,0-1.8-1.88c-1.17,0-1.74.7-1.77,1.83,0,1,0,2,0,3v3.93c-1.71-1.77-3.1-3.26-4.55-4.68-.39-.37-1-.81-1.48-.73a2.29,2.29,0,0,0-1.6,1.08,2.25,2.25,0,0,0,.44,1.94c1.41,1.55,3,3,4.79,4.68H47c-1.54,0-2.45.68-2.37,1.86.1,1.46,1.09,1.8,2.37,1.78,2,0,4,0,6.29,0-1.61,1.55-3,2.85-4.32,4.19-.4.41-.93,1-.91,1.42a2.48,2.48,0,0,0,.87,1.85,2.19,2.19,0,0,0,2-.28c1.58-1.51,3-3.19,4.5-4.8l.42.31c0,2.17,0,4.34,0,6.52A1.6,1.6,0,0,0,57.62,116a1.65,1.65,0,0,0,1.74-1.86v-6.78c1.64,1.68,3,3.16,4.46,4.56.4.39,1.06.87,1.51.79A2.52,2.52,0,0,0,67,111.55a2.1,2.1,0,0,0-.46-1.85c-1.43-1.53-3-2.93-4.79-4.62.75,0,1.05-.06,1.34-.06a50.29,50.29,0,0,0,5.63-.09,2.56,2.56,0,0,0,1.68-1.58c.14-.47-.56-1.31-1.07-1.79-.28-.27-.94-.17-1.42-.18H62c1.56-1.55,3-2.88,4.28-4.26.4-.4.93-1,.9-1.41A2.37,2.37,0,0,0,66.24,94a2.1,2.1,0,0,0-1.95.19C62.68,95.64,61.24,97.3,59.73,98.91ZM85.39,105c-1.72,1.62-3.13,2.94-4.53,4.29-1.09,1.06-1.22,2.1-.33,2.92,1.09,1,2,.49,2.85-.43,1.34-1.49,2.66-3,4-4.49l.49.4v6.38c0,1.15.6,1.9,1.73,1.87a1.71,1.71,0,0,0,1.8-1.91v-6.58c1.55,1.57,2.91,3,4.31,4.35.4.39,1,.91,1.42.86.65-.08,1.61-.49,1.78-1a2.66,2.66,0,0,0-.49-2.16C97.08,108,95.56,106.61,94,105h6.33c1.24,0,2.1-.56,2.1-1.85s-.87-1.8-2.12-1.79c-2,0-4.07,0-6.28,0l4.47-4.48c1.07-1.08,1-2.62-.24-3a2.84,2.84,0,0,0-2.29.5c-1.53,1.35-2.88,2.91-4.58,4.68,0-2.66,0-4.84,0-7a1.77,1.77,0,0,0-3.54,0c0,1.48,0,3,0,4.44v2.69c-1.73-1.8-3.11-3.27-4.52-4.7-.32-.33-.79-.78-1.13-.74-.68.09-1.62.31-1.89.79a2.27,2.27,0,0,0,.22,2.07c1.43,1.57,3.06,3,4.94,4.77-2.52,0-4.49,0-6.46,0-1.27,0-2.19.4-2.29,1.79-.08,1.13.85,1.85,2.32,1.85Zm32.19,0c-1.56,1.59-3,3-4.42,4.49-.84.87-1.1,1.86-.13,2.78s1.84.56,2.66-.26l3.81-3.76c.21-.21.43-.41.79-.75v6.57A1.69,1.69,0,0,0,122,116a1.72,1.72,0,0,0,1.83-2c0-2.1,0-4.19,0-6.6,1.73,1.76,3.19,3.38,4.82,4.82a2.16,2.16,0,0,0,2,.23,2.33,2.33,0,0,0,.83-1.85c0-.54-.62-1.12-1.07-1.57-1.31-1.29-2.66-2.52-4.32-4.07,2.74,0,4.92,0,7.09,0a1.78,1.78,0,0,0,0-3.55c-1,0-2,0-3,0h-3.7L130.8,97c.88-.87,1.27-1.9.33-2.84s-2-.65-2.88.3c-1.36,1.46-2.74,2.91-4.4,4.67,0-2.7,0-4.85,0-7a1.78,1.78,0,0,0-3.56,0v6.7l-.64-.57c-1.37-1.35-2.67-2.79-4.15-4a2.57,2.57,0,0,0-2.15-.28c-.46.17-.84,1.11-.84,1.71s.52,1.06.93,1.48c1.31,1.38,2.68,2.7,4.19,4.21h-6.34c-1.24,0-2.1.55-2.09,1.85S110,105,111.26,105Z"/></g></g></svg>