<svg xmlns="http://www.w3.org/2000/svg" viewBox="0 0 193.81 175"><defs><style>.cls-1{fill:#149ee9;}.cls-2{fill:#203b72;}</style></defs><g id="Layer_2" data-name="Layer 2"><g id="Layer_1-2" data-name="Layer 1"><path class="cls-1" d="M98.51,60.67A45.5,45.5,0,0,1,118.66,65a50.25,50.25,0,0,1,17.4,13.9,65.11,65.11,0,0,1,7,11.11,22.74,22.74,0,0,0,9.61,9.78,4.13,4.13,0,0,1,2.23,3.74,4.32,4.32,0,0,1-6.25,4,28.78,28.78,0,0,1-12.74-12.41c-1.46-2.6-2.82-5.26-4.47-7.74a40.48,40.48,0,0,0-17.38-14.84A35.06,35.06,0,0,0,97.53,69.5a35.94,35.94,0,0,0-12.59,3,38.85,38.85,0,0,0-14.4,10.79c-2.08,2.5-3.87,5.24-5.75,7.91a47.55,47.55,0,0,1-8.2,8.86,49.69,49.69,0,0,1-11.93,7.51,4.37,4.37,0,0,1-3.74-7.89,45.52,45.52,0,0,0,8.92-5.47A43.56,43.56,0,0,0,59.72,83a43.25,43.25,0,0,1,6.78-8.24,48,48,0,0,1,11.29-8.33C84.61,62.8,91.83,60.52,98.51,60.67Z"/><path class="cls-1" d="M100.67,77.48a32.81,32.81,0,0,1,15.12,3.76,31,31,0,0,1,9.14,7.39,32.9,32.9,0,0,1,6.12,11.16,28.38,28.38,0,0,0,3.78,8,26.7,26.7,0,0,0,5.64,5.94A27.16,27.16,0,0,0,148,117.6a4.42,4.42,0,0,1,1.36,7.21,4.45,4.45,0,0,1-4.77.92,33.41,33.41,0,0,1-16.52-12.16,32.26,32.26,0,0,1-4-7.47c-.5-1.32-1-2.63-1.46-4a22.63,22.63,0,0,0-8.34-11.48c-6.47-4.65-13.54-5.41-21-3a21.25,21.25,0,0,0-11.62,9.44c-1.45,2.38-2.81,4.83-4.42,7.1a56.72,56.72,0,0,1-12.16,12.44,64.53,64.53,0,0,1-15.53,8.74,5.11,5.11,0,0,1-3.94.35,4.22,4.22,0,0,1-2.84-3.54A4.42,4.42,0,0,1,44.52,118a2.29,2.29,0,0,1,.56-.29c2-.87,4-1.65,5.92-2.61a53.77,53.77,0,0,0,14.26-10.28,50.86,50.86,0,0,0,8.19-11.12,31.6,31.6,0,0,1,10.15-11,31,31,0,0,1,13.33-5C98.37,77.63,99.82,77.56,100.67,77.48Z"/><path class="cls-1" d="M99.4,44.47a57.91,57.91,0,0,1,17.14,2.61,60.91,60.91,0,0,1,14.7,7,67,67,0,0,1,14.11,12.23A70,70,0,0,1,153,77a11.64,11.64,0,0,1,1.43,3,4.24,4.24,0,0,1-2.79,5.19,4.62,4.62,0,0,1-5.3-2c-1.06-1.69-2-3.43-3.14-5.09a56.4,56.4,0,0,0-8.28-9.83A55.36,55.36,0,0,0,127,61.76a50.87,50.87,0,0,0-20.71-8A49.44,49.44,0,0,0,77.8,58.14,50.69,50.69,0,0,0,62.71,69.39a71.2,71.2,0,0,0-7.28,9.48,32.76,32.76,0,0,1-7.69,8.07,21.67,21.67,0,0,1-3,2,4.42,4.42,0,0,1-5.59-1.53,4.47,4.47,0,0,1,.73-5.71c.75-.64,1.6-1.15,2.4-1.72a25.62,25.62,0,0,0,6.31-6.74,73.69,73.69,0,0,1,8.44-10.7,63.32,63.32,0,0,1,10.48-8.7,56.42,56.42,0,0,1,18.87-8A54.84,54.84,0,0,1,99.4,44.47Z"/><path class="cls-1" d="M98.62,27.13a64.61,64.61,0,0,1,22.44,4.14,74.4,74.4,0,0,1,25.63,16.05,49.52,49.52,0,0,1,6.41,7.08,4.38,4.38,0,0,1-5.29,6.47,6.33,6.33,0,0,1-2.08-1.63,66.71,66.71,0,0,0-16-14,61.37,61.37,0,0,0-24.43-8.83,56.89,56.89,0,0,0-28.84,3.49,53.38,53.38,0,0,0-13.24,7.66,63.76,63.76,0,0,0-12.79,13.3c-1.23,1.73-2.79,2.82-5,2.26a4.47,4.47,0,0,1-2.54-6.88,78.73,78.73,0,0,1,8.27-9.67,97.87,97.87,0,0,1,7.71-6.68,63.72,63.72,0,0,1,6.68-4.41,60.93,60.93,0,0,1,14.82-6.16A66.67,66.67,0,0,1,98.62,27.13Z"/><path class="cls-1" d="M144.21,135a4.42,4.42,0,0,1-5.85,4.4,63.52,63.52,0,0,1-11.43-5.56,49.51,49.51,0,0,1-11.23-9.53,48.58,48.58,0,0,1-9.65-17.1,6.44,6.44,0,0,0-5.76-4.62,7.15,7.15,0,0,0-6.91,4.06,62.73,62.73,0,0,1-5.66,8.65,72.74,72.74,0,0,1-16.4,15.51A72.93,72.93,0,0,1,56.11,139a5.77,5.77,0,0,1-3.67.51,4.57,4.57,0,0,1-3.27-3.83,4.42,4.42,0,0,1,2.69-4.51A66.57,66.57,0,0,0,77.75,113.5a61.25,61.25,0,0,0,6.14-8c1-1.55,1.81-3.24,2.82-4.78a14.86,14.86,0,0,1,7.53-5.87,15.39,15.39,0,0,1,13.38,1.07c3.71,2.1,5.81,5.47,7.13,9.49a36.32,36.32,0,0,0,5.34,10.25,41.13,41.13,0,0,0,5.5,6.2,42.6,42.6,0,0,0,11.88,7.67c1.42.61,2.87,1.17,4.27,1.81A4.13,4.13,0,0,1,144.21,135Z"/><path class="cls-1" d="M96.67,8.14a74.06,74.06,0,0,1,17.24,2,73.09,73.09,0,0,1,11,3.55,78.86,78.86,0,0,1,13.52,7.19,44.66,44.66,0,0,1,4,3,4.4,4.4,0,0,1-4.24,7.49,5.76,5.76,0,0,1-1.59-.88,70.77,70.77,0,0,0-13.19-7.78,65,65,0,0,0-30.6-5.6,64.11,64.11,0,0,0-20,4.46,55.19,55.19,0,0,0-11.13,5.71c-2.27,1.54-4.49,3.16-6.66,4.83-1.51,1.17-3,1.84-5,1.12a4.46,4.46,0,0,1-1.21-7.6A109,109,0,0,1,58,19.12a76.29,76.29,0,0,1,18.21-8.06A79.17,79.17,0,0,1,96.67,8.14Z"/><path class="cls-2" d="M183.54,10.27H155a12,12,0,0,1-2.25-.15,5.05,5.05,0,0,1-4-5.08A4.87,4.87,0,0,1,153,.13C154.81,0,156.61,0,158.39,0H188a5.78,5.78,0,0,1,4.09,1.2,5.32,5.32,0,0,1,1.74,4.22q0,7.5,0,15V47.56a5.13,5.13,0,0,1-3.95,5.32,5,5,0,0,1-6.21-4.15,34.31,34.31,0,0,1-.11-3.52V10.27Z"/><path class="cls-2" d="M10.28,10.26v9.42q0,14,0,28a5.1,5.1,0,0,1-1.7,4,4.91,4.91,0,0,1-5.69.85A4.94,4.94,0,0,1,0,48C0,47,0,46.06,0,45.1Q0,25.38,0,5.64A7.29,7.29,0,0,1,.63,2.72C1.5.77,3.23.05,5.28,0c1.66,0,3.33,0,5,0H39a12,12,0,0,1,1.34.05,4.94,4.94,0,0,1,4.72,5.28,5,5,0,0,1-5.15,4.92c-8.95,0-17.9,0-26.85,0Z"/><path class="cls-2" d="M10.29,164.71h.92l27.19,0a18.34,18.34,0,0,1,2.46.11,5,5,0,0,1,3.89,6.75,4.88,4.88,0,0,1-5,3.4H5.54C2,175,0,173,0,169.39q0-20.91,0-41.84c0-3.82,2.83-6.13,6.52-5.37a4.93,4.93,0,0,1,3.62,4c.11,1.23.12,2.48.12,3.72q0,16.84,0,33.68Z"/><path class="cls-2" d="M183.54,164.73v-1.39q0-17.84,0-35.65a6.68,6.68,0,0,1,.38-2.48,5,5,0,0,1,6-3,5.12,5.12,0,0,1,3.88,5c0,3.59,0,7.19,0,10.78q0,15.6,0,31.21a7.47,7.47,0,0,1-.3,2.36c-.8,2.38-2.45,3.47-5,3.47l-24.8,0H154.5a5.38,5.38,0,0,1-4.17-1.34,5.06,5.06,0,0,1-1.18-5.83,4.78,4.78,0,0,1,4.65-3.07c6.27,0,12.54,0,18.81,0h10.93Z"/><path class="cls-1" d="M96.77,142.2a16.7,16.7,0,0,1,10.49,3.63,69,69,0,0,0,10.9,6.81l2.14,1.06a4.39,4.39,0,0,1,2,5.94,4.29,4.29,0,0,1-5.7,2,72.24,72.24,0,0,1-14.15-8.49c-3.69-2.86-7.66-2.86-11.34,0a60.93,60.93,0,0,1-9.33,6c-1.58.81-3.18,1.59-4.77,2.39a4.15,4.15,0,0,1-4.57-.49,4.06,4.06,0,0,1-1.65-4A4,4,0,0,1,73,153.84c1.8-.91,3.64-1.76,5.34-2.83,2.84-1.78,5.58-3.71,8.37-5.56A17.21,17.21,0,0,1,96.77,142.2Z"/><path class="cls-1" d="M103.75,117.6a12.24,12.24,0,0,1-.87,2.18,74.13,74.13,0,0,1-8,10.34,85.87,85.87,0,0,1-10.49,9.69,81.46,81.46,0,0,1-12.11,7.94c-2.66,1.38-5.3,2.82-8,4A4.31,4.31,0,0,1,58,148.62c-.49-2,.66-3.92,2.74-5,3.1-1.55,6.27-3,9.24-4.76a100.23,100.23,0,0,0,9.18-6.25A68.5,68.5,0,0,0,91,121.15,72.78,72.78,0,0,0,95.46,115a4.55,4.55,0,0,1,8.29,2.59Z"/><path class="cls-1" d="M107.29,126.93a3.89,3.89,0,0,1,3.13,1.31c2.33,2.24,4.6,4.58,7.13,6.57a75.61,75.61,0,0,0,8.22,5.52c2.23,1.32,4.66,2.3,7,3.45a4.2,4.2,0,0,1,2.66,4.11,4.27,4.27,0,0,1-2.6,4,5.11,5.11,0,0,1-4.29-.25A73.37,73.37,0,0,1,112.35,142a81.24,81.24,0,0,1-8.37-7.7,4.41,4.41,0,0,1,1-6.92,8.36,8.36,0,0,1,2.27-.62Z"/></g></g></svg>