<svg xmlns="http://www.w3.org/2000/svg" viewBox="0 0 201.48 196.78"><defs><style>.cls-1{fill:#203b72;}.cls-2{fill:#149ee9;}</style></defs><g id="Layer_2" data-name="Layer 2"><g id="Layer_1-2" data-name="Layer 1"><path class="cls-1" d="M14,163.69,0,0C.82.6,1.51,1.09,2.18,1.61L51,39.06q12.18,9.34,24.35,18.72A1.45,1.45,0,0,1,75.76,59c-.54,3.17-1.14,6.32-1.72,9.48,0,.24-.09.49-.18.92L12.06,22c3.34,39.22,6.67,78.18,10,117.5l28.16-31.4c1.44,2.66,2.84,5.22,4.21,7.79q12.67,23.78,25.32,47.57c3.31,6.23,6.62,12.46,9.88,18.72.52,1,.89,1.24,2,.63,4-2.23,8-4.31,12-6.49a.86.86,0,0,0,.26-.8q-15.4-29-30.86-58.05c-3-5.59-6-11.16-9-16.74a3.19,3.19,0,0,1-.14-.39l5.94-1.26c2.16-.45,4.31-.94,6.48-1.31a1.42,1.42,0,0,1,1.21.6c1.31,2.87,2.53,5.78,3.79,8.72l-2,.44L118,180.29c-2.5,1.33-5,2.68-7.48,4q-11.89,6.27-23.8,12.48c-.19.1-.81-.21-1-.47-3.72-6.95-7.4-13.92-11.1-20.88q-10-18.82-20-37.65-3-5.69-6.08-11.35a.87.87,0,0,0-.81-.1Q31.77,143.94,15.9,161.6Z"/><path class="cls-2" d="M141.19,135.85A60,60,0,0,1,80.87,76.09c-.06-33.62,26.73-60.27,60.65-60.33a60,60,0,1,1-.33,120.09Zm-.14-10.32c28.25-.19,50.32-22.28,50.17-50.22C191.08,47.73,168.48,25.84,140.3,26,113.15,26.14,91,48.76,91.2,76.2A49.58,49.58,0,0,0,141.05,125.53Z"/><path class="cls-2" d="M141.08,109H119.94c-3.22,0-4.16-.93-4.16-4.13q0-17.09,0-34.17a3,3,0,0,1,3.27-3.24c1.18,0,2.35-.07,3.52,0,.9.06,1.1-.26,1.09-1.1,0-3.83-.14-7.67,0-11.49.53-12.17,11.52-18.19,21.19-16,8.88,2,13.67,8.21,13.71,17.32,0,3.47,0,7,0,10.42a1.11,1.11,0,0,0,.77.8c1.15.09,2.3,0,3.45,0,2.44,0,3.65,1.2,3.65,3.62q0,16.17,0,32.34c0,.7,0,1.41,0,2.11-.05,2.33-1.23,3.48-3.56,3.48Zm0-41.56c3.59,0,7.18,0,10.78,0,.26,0,.74-.42.74-.64,0-3.85.1-7.71-.07-11.55a10.48,10.48,0,0,0-7-10,11.32,11.32,0,0,0-15.77,9.56c-.31,3.92-.12,7.88-.1,11.82a1.15,1.15,0,0,0,.77.8C134,67.46,137.55,67.44,141.12,67.44Zm-2.82,24.3c0,.78,0,1.55,0,2.33a2.94,2.94,0,0,0,2.87,2.86A2.91,2.91,0,0,0,144,94c0-1.53,0-3.06,0-4.58a1.51,1.51,0,0,1,.61-1.07,6.35,6.35,0,0,0,3-7.06,6.7,6.7,0,0,0-5.78-5,6.87,6.87,0,0,0-6.84,4,5.79,5.79,0,0,0,1.52,7.15A4,4,0,0,1,138.3,91.74Z"/></g></g></svg>