<?xml version="1.0" encoding="utf-8"?>
<!-- Generator: Adobe Illustrator 25.0.1, SVG Export Plug-In . SVG Version: 6.00 Build 0)  -->
<svg version="1.1" id="Layer_1" xmlns="http://www.w3.org/2000/svg" xmlns:xlink="http://www.w3.org/1999/xlink" x="0px" y="0px"
	 viewBox="0 0 210 210" style="enable-background:new 0 0 210 210;" xml:space="preserve">
<style type="text/css">
	.st0{fill:none;stroke:#1E81CE;stroke-width:10;stroke-linecap:round;stroke-linejoin:round;}
	.st1{fill:none;stroke:#203B72;stroke-width:10;stroke-linecap:round;stroke-linejoin:round;}
</style>
<g id="Layer_2_1_">
	<g id="Icons">
		<path class="st0" d="M97.8,67.3l-42,66.1c-2.5,4-1.4,9.3,2.6,11.9c1.4,0.9,3,1.3,4.6,1.3h84c4.7,0,8.6-3.8,8.6-8.6
			c0-1.6-0.5-3.2-1.3-4.6l-42-66.1c-2.5-4-7.9-5.2-11.9-2.6C99.3,65.4,98.4,66.3,97.8,67.3z"/>
		<line class="st0" x1="105" y1="94.2" x2="105" y2="107.4"/>
		<line class="st0" x1="105" y1="126.7" x2="105" y2="126.7"/>
		<circle class="st1" cx="105" cy="105" r="83.2"/>
		<line class="st1" x1="171.4" y1="105" x2="205" y2="105"/>
		<line class="st1" x1="38.5" y1="105" x2="5" y2="105"/>
		<line class="st1" x1="105" y1="171.4" x2="105" y2="205"/>
		<line class="st1" x1="105" y1="38.5" x2="105" y2="5"/>
	</g>
</g>
</svg>
