<?xml version="1.0" encoding="utf-8"?>
<!-- Generator: Adobe Illustrator 25.0.1, SVG Export Plug-In . SVG Version: 6.00 Build 0)  -->
<svg version="1.1" id="Layer_1" xmlns="http://www.w3.org/2000/svg" xmlns:xlink="http://www.w3.org/1999/xlink" x="0px" y="0px"
	 viewBox="0 0 60.8 60.8" style="enable-background:new 0 0 60.8 60.8;" xml:space="preserve">
<style type="text/css">
	.st0{fill:#FFFFFF;}
	.st1{fill:#203B72;}
	.st2{fill:#1E81CE;}
</style>
<g id="Layer_2_1_">
	<g id="_1">
		<g id="C758_Chip_computers_devices_gadget_hardware">
			<path class="st0" d="M49.3,9H11.4c-1.4,0-2.5,1.1-2.5,2.5c0,0,0,0,0,0v37.8c0,1.4,1.1,2.5,2.5,2.5c0,0,0,0,0.1,0h37.8
				c1.4,0,2.5-1.1,2.5-2.5c0,0,0,0,0-0.1V11.5c0-1.4-1-2.5-2.4-2.5C49.4,9,49.3,9,49.3,9z"/>
			<path class="st1" d="M39,31.9v2.4h-8.6c0-0.5,0-0.9,0.1-1.4c0.1-0.4,0.2-0.8,0.4-1.1c0.2-0.4,0.5-0.7,0.8-1
				c0.4-0.3,0.8-0.6,1.2-0.8c0.5-0.3,1-0.5,1.3-0.7s0.6-0.4,0.8-0.5c0.2-0.1,0.4-0.2,0.5-0.4c0.1-0.1,0.1-0.3,0.1-0.4
				c0-0.3-0.1-0.6-0.3-0.8c-0.3-0.2-0.6-0.3-1-0.3c-0.4,0-0.8,0.1-1.2,0.3c-0.4,0.2-0.7,0.6-1,0.9l-1.7-2c0.2-0.2,0.4-0.4,0.7-0.6
				c0.3-0.2,0.6-0.4,1-0.5c0.4-0.2,0.9-0.3,1.3-0.4c0.5-0.1,0.9-0.1,1.4-0.1c1,0,2,0.2,2.8,0.8c0.7,0.5,1.1,1.3,1,2.1
				c0,0.3-0.1,0.7-0.2,1c-0.1,0.3-0.3,0.6-0.5,0.8l-0.6,0.6c-0.2,0.2-0.5,0.3-0.7,0.5c-0.2,0.1-0.4,0.2-0.5,0.3
				c-0.2,0.1-0.4,0.2-0.6,0.4c-0.2,0.1-0.4,0.2-0.5,0.4c-0.2,0.1-0.3,0.3-0.4,0.5L39,31.9z"/>
			<path class="st1" d="M29.1,33.3c0,0.5-0.1,1-0.3,1.4c-0.2,0.4-0.5,0.8-0.9,1.1c-0.4,0.3-0.9,0.5-1.4,0.7
				c-0.6,0.2-1.3,0.2-1.9,0.2c-1.5,0.1-2.9-0.5-4-1.5l1.4-1.9c0.3,0.3,0.6,0.6,1,0.7c0.5,0.2,0.9,0.2,1.4,0.2c1.3,0,1.9-0.5,1.9-1.4
				c0-0.5-0.2-0.9-0.6-1.1c-0.6-0.3-1.2-0.5-1.8-0.4h-0.5v-1.9H24c0.5,0,1.1-0.1,1.5-0.4c0.3-0.2,0.5-0.6,0.5-1
				c0-0.4-0.1-0.7-0.4-0.8c-0.3-0.2-0.6-0.3-1-0.3c-0.5,0-0.9,0.1-1.3,0.3c-0.4,0.2-0.7,0.5-1,0.9l-1.7-2c0.2-0.3,0.4-0.5,0.7-0.7
				c0.3-0.2,0.6-0.4,1-0.5c0.4-0.1,0.8-0.2,1.2-0.3c0.4-0.1,0.9-0.1,1.3-0.1c0.5,0,1.1,0.1,1.6,0.2c0.5,0.1,0.9,0.3,1.3,0.6
				c0.3,0.3,0.6,0.6,0.8,0.9c0.2,0.4,0.3,0.8,0.3,1.2c0,0.3-0.1,0.7-0.2,1c-0.1,0.3-0.3,0.6-0.4,0.8c-0.2,0.2-0.4,0.5-0.7,0.6
				c-0.3,0.2-0.6,0.3-0.9,0.3c0.3,0.1,0.7,0.2,1,0.4c0.3,0.2,0.5,0.4,0.7,0.7c0.2,0.3,0.4,0.6,0.5,0.9C29,32.5,29.1,32.9,29.1,33.3z
				"/>
			<path class="st2" d="M49.3,53.2H11.4c-2.1,0-3.8-1.7-3.8-3.8l0,0V11.5c0-2.1,1.7-3.8,3.8-3.8l0,0h37.8c2.1,0,3.8,1.7,3.8,3.8
				c0,0,0,0,0,0v37.8C53.1,51.5,51.4,53.2,49.3,53.2C49.3,53.2,49.3,53.2,49.3,53.2z M11.4,10.2c-0.7,0-1.3,0.6-1.3,1.3v37.8
				c0,0.7,0.6,1.3,1.3,1.3h37.8c0.7,0,1.3-0.6,1.3-1.3V11.5c0-0.7-0.6-1.3-1.3-1.3L11.4,10.2z"/>
			<path class="st2" d="M15.2,10.2c-0.7,0-1.3-0.6-1.3-1.3V1.3c0.1-0.7,0.7-1.3,1.4-1.2c0.6,0.1,1.1,0.6,1.2,1.2v7.6
				C16.5,9.6,15.9,10.2,15.2,10.2z"/>
			<path class="st2" d="M25.3,10.2c-0.7,0-1.3-0.6-1.3-1.3V1.3c0.1-0.7,0.7-1.3,1.4-1.2c0.6,0.1,1.1,0.6,1.2,1.2v7.6
				C26.6,9.6,26,10.2,25.3,10.2z"/>
			<path class="st2" d="M35.4,10.2c-0.7,0-1.3-0.6-1.3-1.3V1.3c0.1-0.7,0.7-1.3,1.4-1.2c0.6,0.1,1.1,0.6,1.2,1.2v7.6
				C36.7,9.6,36.1,10.2,35.4,10.2z"/>
			<path class="st2" d="M45.5,10.2c-0.7,0-1.3-0.6-1.3-1.3V1.3c0.1-0.7,0.7-1.3,1.4-1.2c0.6,0.1,1.1,0.6,1.2,1.2v7.6
				C46.8,9.6,46.2,10.2,45.5,10.2z"/>
			<path class="st2" d="M15.2,60.8c-0.7,0-1.3-0.6-1.3-1.3v-7.6c0.1-0.7,0.7-1.3,1.4-1.2c0.6,0.1,1.1,0.6,1.2,1.2v7.6
				C16.5,60.2,15.9,60.8,15.2,60.8z"/>
			<path class="st2" d="M25.3,60.8c-0.7,0-1.3-0.6-1.3-1.3v-7.6c0.1-0.7,0.7-1.3,1.4-1.2c0.6,0.1,1.1,0.6,1.2,1.2v7.6
				C26.6,60.2,26,60.8,25.3,60.8z"/>
			<path class="st2" d="M35.4,60.8c-0.7,0-1.3-0.6-1.3-1.3v-7.6c0.1-0.7,0.7-1.3,1.4-1.2c0.6,0.1,1.1,0.6,1.2,1.2v7.6
				C36.7,60.2,36.1,60.8,35.4,60.8z"/>
			<path class="st2" d="M45.5,60.8c-0.7,0-1.3-0.6-1.3-1.3v-7.6c0.1-0.7,0.7-1.3,1.4-1.2c0.6,0.1,1.1,0.6,1.2,1.2v7.6
				C46.8,60.2,46.2,60.8,45.5,60.8z"/>
			<path class="st2" d="M59.5,16.6h-7.6c-0.7-0.1-1.3-0.7-1.2-1.4c0.1-0.6,0.6-1.1,1.2-1.2h7.6c0.7,0,1.3,0.6,1.3,1.3
				C60.7,16,60.2,16.5,59.5,16.6z"/>
			<path class="st2" d="M59.5,26.7h-7.6c-0.7-0.1-1.3-0.7-1.2-1.4c0.1-0.6,0.6-1.1,1.2-1.2h7.6c0.7,0,1.3,0.6,1.3,1.3
				C60.7,26.1,60.2,26.6,59.5,26.7z"/>
			<path class="st2" d="M59.5,36.8h-7.6c-0.7-0.1-1.3-0.7-1.2-1.4c0.1-0.6,0.6-1.1,1.2-1.2h7.6c0.7,0,1.3,0.6,1.3,1.3
				C60.7,36.2,60.2,36.8,59.5,36.8z"/>
			<path class="st2" d="M59.5,46.9h-7.6c-0.7-0.1-1.3-0.7-1.2-1.4c0.1-0.6,0.6-1.1,1.2-1.2h7.6c0.7,0,1.3,0.6,1.3,1.3
				C60.7,46.3,60.2,46.9,59.5,46.9z"/>
			<path class="st2" d="M8.9,16.6H1.3c-0.7-0.1-1.3-0.7-1.2-1.4C0.2,14.5,0.7,14,1.3,14h7.6c0.7,0,1.3,0.6,1.3,1.3
				C10.1,16,9.6,16.5,8.9,16.6z"/>
			<path class="st2" d="M8.9,26.7H1.3C0.6,26.6,0,26,0.1,25.3c0.1-0.6,0.6-1.1,1.2-1.2h7.6c0.7,0,1.3,0.6,1.3,1.3
				C10.1,26.1,9.6,26.6,8.9,26.7z"/>
			<path class="st2" d="M8.9,36.8H1.3c-0.7-0.1-1.3-0.7-1.2-1.4c0.1-0.6,0.6-1.1,1.2-1.2h7.6c0.7,0,1.3,0.6,1.3,1.3
				C10.2,36.2,9.6,36.8,8.9,36.8z"/>
			<path class="st2" d="M8.9,46.9H1.3c-0.7-0.1-1.3-0.7-1.2-1.4c0.1-0.6,0.6-1.1,1.2-1.2h7.6c0.7,0,1.3,0.6,1.3,1.3
				C10.1,46.3,9.6,46.9,8.9,46.9z"/>
		</g>
	</g>
</g>
</svg>
