<svg xmlns="http://www.w3.org/2000/svg" viewBox="0 0 211.13 211.17"><defs><style>.cls-1{fill:#203b72;}.cls-2{fill:#149ee9;}</style></defs><g id="Layer_2" data-name="Layer 2"><g id="Layer_1-2" data-name="Layer 1"><path class="cls-1" d="M202.81,109.5c-2.15.75-3.13-.75-4.4-2-2-2-4.3-3.76-6.46-5.63-.12-.1-.22-.21-.41-.38h8.11a11.17,11.17,0,0,1,1.83,0c1.32.2,1.56-.34,1.48-1.58a98.26,98.26,0,0,0-6.08-28.38A96,96,0,0,0,177.28,40a1.27,1.27,0,0,0-1.24-.09,97.25,97.25,0,0,1-22.22,12.3c-.7.28-1,.49-.72,1.39a172.35,172.35,0,0,1,6.31,37.19c.13,2.06.27,4.12.37,6.18,0,.23-.08.62-.24.69-2.43,1.16-4.88,2.28-7.32,3.4a.68.68,0,0,1-.21,0c-.34-5-.6-9.91-1.06-14.83a162.19,162.19,0,0,0-5.63-30.34.94.94,0,0,0-.82-.42,134.59,134.59,0,0,1-34.06,5.4,1.22,1.22,0,0,0-.8.85q-.06,19.49,0,39c0,.27.63.77,1,.77q19.41,0,38.82,0h2a14.48,14.48,0,0,0-1.34.91c-2.38,2.22-4.75,4.45-7.14,6.66a1.79,1.79,0,0,1-1.05.49c-10.55,0-21.1,0-31.64,0a1,1,0,0,0-.68.69q0,19.59,0,39.18a1.13,1.13,0,0,0,.76.82c4.23.36,8.47.67,12.71,1,.64,0,.89.12.79.93a45.85,45.85,0,0,0-.37,6c0,1.15-.3,1.32-1.38,1.21-3.87-.38-7.76-.64-11.64-1-.69-.06-.92.12-.92.86,0,14.23,0,28.47,0,42.7,0,.19.58.59.77.53a35.3,35.3,0,0,0,12.47-7.34l.6-.49c0,2.26,0,4.36,0,6.46a17.87,17.87,0,0,0,1.37,7.84c0,.08-.27.46-.44.48-5,.57-10.06,1.37-15.11,1.61a100.28,100.28,0,0,1-36.73-5.21,107,107,0,0,1-63.13-57A104.37,104.37,0,0,1,17,48.52,106.44,106.44,0,0,1,53.48,13.94a104.44,104.44,0,0,1,95.59-4.45,106.47,106.47,0,0,1,37.38,28.59,105,105,0,0,1,17.87,30.43A103.21,103.21,0,0,1,211,100.09a108.61,108.61,0,0,1-2.33,28.49,5.43,5.43,0,0,1-.18.52,47.45,47.45,0,0,0-1.44-6.25c-1.17-3.19-2.69-6.26-4-9.4a4.65,4.65,0,0,1-.2-1.55C202.79,111.18,202.81,110.45,202.81,109.5ZM8.2,111.56c.25,2.36.43,4.72.75,7.07a96.67,96.67,0,0,0,24.55,52.2c.34.38.6,1.19,1.48.53a97,97,0,0,1,22.77-12.54.85.85,0,0,0,.37-.73c-.77-3.12-1.66-6.21-2.37-9.34a184,184,0,0,1-4.41-37.34c0-1.55-.45-1.87-1.93-1.87-13.08.06-26.16,0-39.24,0C8.17,109.57,8.17,109.55,8.2,111.56ZM29.71,101.5h0c6.86,0,13.71,0,20.57,0,.78,0,1-.24,1-1,.06-2.51.15-5,.29-7.53A175.38,175.38,0,0,1,58.17,53.1a.84.84,0,0,0-.39-.73A94.86,94.86,0,0,1,35.21,39.92c-.76-.57-1.11-.33-1.63.24A98,98,0,0,0,12,78.26a90.08,90.08,0,0,0-3.77,22.41,1.12,1.12,0,0,0,.75.8C15.9,101.51,22.81,101.5,29.71,101.5Zm50.73,8.07c-6.67,0-13.34,0-20,0-.77,0-1.19.09-1.12,1,.23,3.54.31,7.09.56,10.62a160.26,160.26,0,0,0,6,34,1,1,0,0,0,.88.45c5.21-1.17,10.37-2.69,15.63-3.51,6.13-1,12.35-1.29,18.53-1.92.24,0,.63-.41.63-.63q0-19.59,0-39.17a1.24,1.24,0,0,0-.87-.85C93.91,109.56,87.18,109.57,80.44,109.57Zm0-8.07v0c6.59,0,13.19,0,19.79,0,1.12,0,1.39-.29,1.39-1.39,0-12.82,0-25.64-.07-38.46a1.13,1.13,0,0,0-.77-.8c-4.49-.4-9-.4-13.46-1.15-6.88-1.17-13.66-2.85-20.5-4.26a1.15,1.15,0,0,0-1,.55c-.81,3-1.61,6-2.31,9.05a176,176,0,0,0-4.16,35.66,1,1,0,0,0,.69.72C66.84,101.51,73.62,101.5,80.41,101.5ZM109.66,8.05c0,.79-.06,1-.06,1.16q0,21.48.05,43c0,.22.44.64.64.62,6.19-.61,12.4-1.06,18.53-2,4.37-.66,8.64-2,12.93-3,.26-.07.64-.69.56-.87-2.05-4.61-3.93-9.31-6.3-13.75-4.37-8.18-10-15.43-17.82-20.6C115.6,10.86,112.7,9.64,109.66,8.05Zm-8.08,172.49h0c0-7.11,0-14.23,0-21.34a1.09,1.09,0,0,0-.77-.76,124.08,124.08,0,0,0-31.62,5,.78.78,0,0,0-.29.7c1,2.61,2,5.24,3.21,7.79,4.07,8.83,9.2,16.94,16.59,23.42a35.72,35.72,0,0,0,11.68,7.06c.94.33,1.31.32,1.3-.89C101.55,194.54,101.58,187.54,101.58,180.54Zm0-172c-.37.1-.64.15-.91.24a33.75,33.75,0,0,0-12.5,7.52c-9.21,8.39-14.85,19-19.23,30.49-.27.7-.11.9.55,1.09a126.37,126.37,0,0,0,31.55,5c.18,0,.53-.44.53-.67q0-17.43,0-34.87ZM40,177.45A97.52,97.52,0,0,0,81.48,200L81,199.4c-2.17-2.46-4.49-4.81-6.49-7.4-5.86-7.6-10-16.13-13.41-25.05a.85.85,0,0,0-.76-.31c-3.92,1.81-7.88,3.52-11.69,5.52C45.68,173.71,43,175.63,40,177.45ZM171,33.67a97.36,97.36,0,0,0-41.28-22.49c.27.34.38.51.52.66,1.94,2.16,4,4.22,5.81,6.5,6.15,7.78,10.41,16.6,14,25.78.1.25.66.58.83.5,4.33-2.06,8.69-4.06,12.93-6.31C166.32,37,168.57,35.28,171,33.67Zm-90-22.42A98.11,98.11,0,0,0,40.19,33.58c.34.27.59.47.85.66a88.83,88.83,0,0,0,17.38,9.63c2.37,1,2.36,1,3.36-1.34,0-.13.09-.27.14-.4A92.73,92.73,0,0,1,73.73,20.19C76.05,17.11,78.63,14.22,81.07,11.25Z"/><path class="cls-2" d="M171.55,211.17H141.32c-5.34,0-9-3.62-9-9V155.35c0-5.53,3.63-9.15,9.17-9,1.52,0,1.93-.29,1.91-1.86a129.27,129.27,0,0,1,.26-15.13c1.11-10.26,6.59-17.76,15.84-22.23a27.83,27.83,0,0,1,36.33,11.51,30.22,30.22,0,0,1,3.83,15.45c0,3.82,0,7.65,0,11.48a1,1,0,0,0,.72.7c3.45-.16,6.71.39,8.7,3.5a10,10,0,0,1,1.67,5c.12,15.92.1,31.85.06,47.77a8.36,8.36,0,0,1-8.63,8.58c-10.21,0-20.43,0-30.65,0Zm-.06-64.88c5.49,0,11,0,16.48,0a1.09,1.09,0,0,0,.75-.75c.05-4.23.05-8.46,0-12.68a17.48,17.48,0,0,0-12.94-17c-9.94-2.81-20.92,4.85-21.49,15.15-.26,4.82-.13,9.67-.12,14.5a1.12,1.12,0,0,0,.79.79C160.5,146.3,166,146.29,171.49,146.29Zm.12,49.94c1.48,0,3,0,4.44,0,1.31,0,1.82-.58,1.65-1.88-.65-5.1-1.26-10.21-1.91-15.3a1.7,1.7,0,0,1,.79-1.87,8.76,8.76,0,0,0,3.7-9.41,8.92,8.92,0,0,0-16.89-1.56,9.11,9.11,0,0,0,3.48,11.32,1.46,1.46,0,0,1,.47,1.12c-.61,5.3-1.27,10.58-1.91,15.87-.14,1.12.44,1.68,1.53,1.69C168.51,196.25,170.06,196.23,171.61,196.23Z"/></g></g></svg>