<svg xmlns="http://www.w3.org/2000/svg" viewBox="0 0 166.41 166.17"><defs><style>.cls-1{fill:#203b72;}.cls-2{fill:#149ee9;}</style></defs><g id="Layer_2" data-name="Layer 2"><g id="Layer_1-2" data-name="Layer 1"><path class="cls-1" d="M83.36,129.84a75.35,75.35,0,0,1-32.92-8.21c-13.2-6.48-24.53-15.47-34.61-26.09-2.84-3-5.45-6.21-8.1-9.37-1.48-1.76-1.45-3.25-.05-5.09A125.1,125.1,0,0,1,23.13,64.33,118.61,118.61,0,0,1,49.22,45.91,78.34,78.34,0,0,1,74.58,37.7a68,68,0,0,1,33.22,3.95c16.2,6,29.74,16,41.69,28.3,3.33,3.42,6.36,7.15,9.45,10.8a3.6,3.6,0,0,1,.15,5.06,122.11,122.11,0,0,1-36.15,32.42A80.52,80.52,0,0,1,91,129.31C88.47,129.6,85.91,129.67,83.36,129.84Zm-.07-7c11.47-.06,22.12-3.23,32.19-8.52A116.38,116.38,0,0,0,151.4,84.46c.62-.76.75-1.2.06-2-11.82-13.77-25.33-25.35-42.12-32.71a64.51,64.51,0,0,0-24.52-5.7c-12.48-.31-23.93,3.36-34.71,9.32a121.5,121.5,0,0,0-35.23,29.9.76.76,0,0,0,0,.73c1.35,1.59,2.7,3.19,4.12,4.72,9.61,10.44,20.39,19.42,33.07,26C61.88,119.71,72.19,122.78,83.29,122.84Z"/><path class="cls-1" d="M24.92,0c3.61,0,7.23,0,10.84,0a3.33,3.33,0,0,1,3.51,3.49A3.37,3.37,0,0,1,35.69,7c-7.07,0-14.14-.08-21.2.09A7.68,7.68,0,0,0,7,14.94c0,6.59,0,13.19,0,19.79,0,2.36-1.38,3.93-3.47,3.93S0,37.05,0,34.68c0-6.59,0-13.19,0-19.79A14.67,14.67,0,0,1,13.23.18C17.09-.18,21,.12,24.92.12Z"/><path class="cls-1" d="M24.7,166.11c-3.55,0-7.1.12-10.63,0A14.53,14.53,0,0,1,.16,152C0,145,.05,138,0,131a3.44,3.44,0,0,1,2.64-3.47,3.34,3.34,0,0,1,3.86,1.74A5.63,5.63,0,0,1,7,131.6c0,6.31,0,12.63.06,18.94,0,4.23,1.93,7.12,5.55,8.31a10.62,10.62,0,0,0,3.19.4c6.55,0,13.1,0,19.65,0,2.42,0,3.87,1.38,3.84,3.52s-1.53,3.37-3.93,3.37H24.7Z"/><path class="cls-1" d="M141.47,166.16c-3.57,0-7.14,0-10.71,0a3.31,3.31,0,0,1-3.49-2.76,3.39,3.39,0,0,1,1.94-3.82,5.36,5.36,0,0,1,2-.29c6.46,0,12.91,0,19.37,0,5.65,0,8.92-3.28,8.92-8.92q0-9.61,0-19.23a3.45,3.45,0,1,1,6.89,0c0,6.81,0,13.62,0,20.43a14.76,14.76,0,0,1-14.63,14.64c-3.43,0-6.86,0-10.29,0Z"/><path class="cls-1" d="M141.68.27c4.17,0,8.41-.45,12.51.11a14.21,14.21,0,0,1,12.15,14.18c.1,6.85,0,13.71,0,20.57a3.44,3.44,0,1,1-6.87,0c0-6.52,0-13,0-19.58,0-5.16-3.24-8.5-8.4-8.54-6.73-.05-13.47,0-20.21,0a3.39,3.39,0,0,1-3.6-2.72,3.42,3.42,0,0,1,2.12-4A4.25,4.25,0,0,1,130.9.05c3.6,0,7.19,0,10.78,0Z"/><path class="cls-2" d="M117.25,83.33a34,34,0,0,1-68-.06C49.2,64.63,64.21,49.73,83.17,49.63A33.63,33.63,0,0,1,117.25,83.33Zm-6.93.26a26.81,26.81,0,0,0-26.77-27c-15.16-.1-27.18,11.57-27.28,26.5a26.8,26.8,0,0,0,26.59,27C98.17,110.17,110.23,98.53,110.32,83.59Z"/><path class="cls-2" d="M98.36,83.35a15.09,15.09,0,1,1-15-15.09A15,15,0,0,1,98.36,83.35Z"/></g></g></svg>