<svg xmlns="http://www.w3.org/2000/svg" viewBox="0 0 227.18 227.18"><defs><style>.cls-1{fill:#149ee9;}.cls-2{fill:#203b72;}</style></defs><g id="Layer_2" data-name="Layer 2"><g id="Layer_1-2" data-name="Layer 1"><path class="cls-1" d="M113.42,44.15a114.75,114.75,0,0,1,32.47,4.53A112.93,112.93,0,0,1,187.75,71c3.94,3.32,7.57,7,11.2,10.69,2.41,2.44,2.42,6.63.31,9.49a7.61,7.61,0,0,1-9.15,2.44,9.17,9.17,0,0,1-2.61-1.87,105,105,0,0,0-23.14-18.48,100.36,100.36,0,0,0-20.12-9,98.39,98.39,0,0,0-20.79-4.24,100.54,100.54,0,0,0-39.8,4.2A99.54,99.54,0,0,0,53,80.26,109.86,109.86,0,0,0,40.13,92,7.65,7.65,0,0,1,28.87,81.59,112.87,112.87,0,0,1,47.92,64.92,114.21,114.21,0,0,1,69.24,53.14a105.9,105.9,0,0,1,26.89-7.57c5.72-.79,11.5-1.17,17.25-1.73Z"/><path class="cls-1" d="M113.79,73.53a85.69,85.69,0,0,1,41.07,10.31A89,89,0,0,1,178.14,102a7.65,7.65,0,0,1-11.24,10.38A72.58,72.58,0,0,0,142.53,95a71.52,71.52,0,0,0-60.27,1.37,73,73,0,0,0-21.49,16.11,7.62,7.62,0,0,1-9.65,1.12A7.88,7.88,0,0,1,48,104.52c.75-2.06,2.36-3.41,3.81-4.88a88.23,88.23,0,0,1,29-19.6A85.4,85.4,0,0,1,113.79,73.53Z"/><path class="cls-2" d="M113.93,156.81h19.85c3.67,0,5.84,2.23,5.84,5.91v29.87a5.49,5.49,0,0,1-5.74,5.76H93.73a5.44,5.44,0,0,1-5.56-5.56q0-15.3,0-30.59a5.23,5.23,0,0,1,5.3-5.38c6.82,0,13.64,0,20.46,0Zm-.15,33.28v0c1.1,0,2.21.08,3.3,0a1.73,1.73,0,0,0,1.59-2.2c-.78-3.57-1.61-7.12-2.38-10.68a.82.82,0,0,1,.32-.71,5.93,5.93,0,0,0-3.56-11.14,5.93,5.93,0,0,0-1.81,11.18.72.72,0,0,1,.3.62c-.78,3.42-1.56,6.84-2.39,10.25-.38,1.6.34,2.65,2,2.72C112,190.12,112.9,190.09,113.78,190.09Z"/><path class="cls-1" d="M152.32,135.27a8.24,8.24,0,0,1-6.34-2.66,41.81,41.81,0,0,0-14.75-10.56,43.49,43.49,0,0,0-49.42,10.51,7.76,7.76,0,0,1-8.74,2.13,7.57,7.57,0,0,1-2.83-12.15,59.33,59.33,0,0,1,30.09-18,56.68,56.68,0,0,1,29.42.61,59.16,59.16,0,0,1,28,17.6c3.36,3.7,1.64,10.25-3.1,11.88C153.74,135,152.79,135.15,152.32,135.27Z"/><path class="cls-2" d="M97.92,153.1c-1.27,0-2.55,0-3.82,0-.16,0-.44-.22-.44-.35-.2-4.81.31-9.5,2.86-13.73a20.25,20.25,0,0,1,33.59-1.73,21,21,0,0,1,4,13v1.19c0,1.59,0,1.6-1.57,1.6-2.18,0-4.35,0-6.52,0a.83.83,0,0,1-.57-.58,52.94,52.94,0,0,0-.59-6.19c-1.4-6.19-8.51-10-14.49-7.87-5.05,1.78-8,6-8.05,11.72,0,.82,0,1.65,0,2.48a.66.66,0,0,1-.45.45c-1.31,0-2.62,0-3.93,0Z"/><path class="cls-2" d="M113.59,227.18A113.59,113.59,0,1,1,227.18,113.59,113.72,113.72,0,0,1,113.59,227.18Zm0-218.3A104.71,104.71,0,1,0,218.3,113.59,104.83,104.83,0,0,0,113.59,8.88Z"/></g></g></svg>