<svg xmlns="http://www.w3.org/2000/svg" viewBox="0 0 220.12 198.17"><defs><style>.cls-1{fill:#203b72;}.cls-2{fill:#149ee9;}</style></defs><g id="Layer_2" data-name="Layer 2"><g id="Layer_1-2" data-name="Layer 1"><path class="cls-1" d="M168.47,74.38c-.2,6.33-.33,12.65-.59,19a106.79,106.79,0,0,1-2.52,19.5,65.65,65.65,0,0,1-9.24,22,72.24,72.24,0,0,1-15.54,16.49,109.36,109.36,0,0,1-16.08,10.54c-4.21,2.28-8.53,4.35-12.79,6.53a2.5,2.5,0,0,1-2.36,0,172.08,172.08,0,0,1-18.24-9.83,88.71,88.71,0,0,1-20.34-17,64.15,64.15,0,0,1-10.43-16.9,79.85,79.85,0,0,1-5.2-18.95,201.08,201.08,0,0,1-1.91-29.42c0-7.25,0-14.49,0-21.74,0-.22,0-.44,0-.65,0-.43.19-.62.66-.67,3.74-.36,7.49-.66,11.2-1.17a96.18,96.18,0,0,0,13.2-2.78,85.08,85.08,0,0,0,19.43-8c3.91-2.25,7.65-4.83,11.43-7.32,1.29-.84,1.65-.87,2.91,0A103.52,103.52,0,0,0,133.25,46a77.76,77.76,0,0,0,14.14,4.5c4.48.9,9,1.52,13.55,2.17,2.13.3,4.29.4,6.44.56.66.05.8.39.81,1,0,3.68.12,7.37.15,11,0,3,0,6.11,0,9.16ZM160,80c0-5.2,0-10.9,0-16.6a2.42,2.42,0,0,0-2.29-2.68c-2.24-.36-4.52-.57-6.74-1-4.18-.92-8.38-1.82-12.48-3a101.34,101.34,0,0,1-9.75-3.66A91.8,91.8,0,0,1,114,45.27c-.45-.28-.91-.56-1.35-.86-1.76-1.19-2.3-1.19-4.05,0a92.78,92.78,0,0,1-17.32,9.22A98.74,98.74,0,0,1,78,57.94a113.56,113.56,0,0,1-13.78,2.54c-2.13.26-2.7.83-2.67,3,.09,8.21.1,16.43.37,24.64.16,4.91.59,9.82,1.17,14.7a70.43,70.43,0,0,0,3.66,15.51,56,56,0,0,0,6.55,13,65.59,65.59,0,0,0,14.75,15c6.56,5,13.77,8.91,21,12.79A3,3,0,0,0,112,159l1-.51a134.8,134.8,0,0,0,21.86-13.32,65.11,65.11,0,0,0,12.71-12.6,55.68,55.68,0,0,0,8.81-18,79.29,79.29,0,0,0,2.92-17C159.61,91.89,159.76,86.17,160,80Z"/><path class="cls-1" d="M77.4,44v-.74q0-8.32,0-16.65a12.73,12.73,0,0,0,0-1.38,2,2,0,0,0-2.07-1.91c-4.77,0-9.55-.07-14.32-.08-3.29,0-6.59,0-9.89,0-2,0-2.08.08-2.71,2a19.49,19.49,0,0,1-4.05,7A19.23,19.23,0,0,1,12.45,27a19,19,0,0,1,6.2-23.16A18.32,18.32,0,0,1,34.37.53C40.51,1.94,44.8,5.7,47.52,11.31a18.21,18.21,0,0,1,.95,2.81c.26.92.49,1.13,1.47,1.12l24.43,0a11.16,11.16,0,0,1,8.14,3.06,9.17,9.17,0,0,1,2.76,6.07c.11,1.57.08,3.15.09,4.72,0,3.78,0,7.56,0,11.34a1,1,0,0,1-.62,1.05A32,32,0,0,1,77.64,44S77.55,44,77.4,44ZM18.88,19.35A11.22,11.22,0,1,0,29.79,8.13,11.26,11.26,0,0,0,18.88,19.35Z"/><path class="cls-1" d="M144.48,44.45c-2.49-.93-4.76-1.82-7.06-2.62-.83-.29-1-.68-1-1.57.1-4.53.13-9.06.12-13.59a11.73,11.73,0,0,1,1.53-6.61,9.23,9.23,0,0,1,7-4.57c3-.3,6.05-.26,9.08-.28,5,0,10,0,15,0,1.47,0,1.49-.07,1.84-1.52a15.66,15.66,0,0,1,3.87-7C180,1,186.4-1.07,193.81.58a18.31,18.31,0,0,1,12.39,9.54,19.17,19.17,0,0,1-6.65,25.44,18.21,18.21,0,0,1-15.65,2.21,19,19,0,0,1-12.79-12.12,6,6,0,0,1-.27-1,1.47,1.47,0,0,0-1.44-1.29,11.13,11.13,0,0,0-1.16,0l-20.36,0h-.36c-2.5.08-3.07.66-3.07,3.15l0,17.09ZM189.4,8.17a11,11,0,0,0-11.31,11.12,11.21,11.21,0,1,0,22.42.08A11.09,11.09,0,0,0,189.4,8.17Z"/><path class="cls-1" d="M77.38,155.26c1.35,1,2.54,1.89,3.76,2.75s2.67,1.85,4,2.77a.85.85,0,0,1,.35.91c-.1,1.86-.12,3.73-.15,5.59,0,2.09.06,4.17-.06,6.25a9.62,9.62,0,0,1-5.51,8.6,9.38,9.38,0,0,1-4.36,1l-20,0c-.34,0-.68,0-1,.07a1.44,1.44,0,0,0-1.3,1.18,18.53,18.53,0,0,1-8.92,11.26,18.45,18.45,0,0,1-15.14,1.63A18.81,18.81,0,0,1,17.31,187a18.43,18.43,0,0,1-.77-14.48,18.62,18.62,0,0,1,9.9-11.06,18.32,18.32,0,0,1,13.92-1,18.38,18.38,0,0,1,12.79,13.4c.24.87.56,1.2,1.47,1.21,2.9,0,5.81,0,8.72,0H74.9c1.84,0,2.5-.65,2.51-2.5,0-5.57,0-11.15,0-16.72ZM45.89,179.09a11.2,11.2,0,1,0-22.39-.47,11.29,11.29,0,0,0,11.11,11.43A11.11,11.11,0,0,0,45.89,179.09Z"/><path class="cls-1" d="M144.42,156c0,3.73,0,7.31,0,10.9,0,1.93,0,3.87,0,5.81s.5,2.3,2.32,2.32c5.77.07,11.54.09,17.31.12.6,0,1.21,0,1.82,0a1.34,1.34,0,0,0,1.46-1.22,18.4,18.4,0,0,1,6.73-10.25,18.18,18.18,0,0,1,16.43-3.43,18.5,18.5,0,0,1,12.86,10.92,19.24,19.24,0,0,1-33.14,19.1,18.63,18.63,0,0,1-2.85-5.75c-.33-1.15-.77-1.43-2-1.43-6.06,0-12.12,0-18.18,0a10.83,10.83,0,0,1-6.7-2,9.17,9.17,0,0,1-3.89-7.36c-.12-3.44,0-6.89-.24-10.32a3,3,0,0,1,1.68-3.2c2-1.15,3.87-2.58,5.79-3.88C144,156.25,144.15,156.17,144.42,156ZM197,178.89a11.23,11.23,0,0,0-11.13-11.24,11.34,11.34,0,0,0-11.26,11.08,11.11,11.11,0,0,0,11.13,11.35A11.26,11.26,0,0,0,197,178.89Z"/><path class="cls-1" d="M49.56,107.16H43.13l-3.34,0c-1.5,0-1.74.22-2.17,1.67A17.64,17.64,0,0,1,33,116.49,18.54,18.54,0,0,1,16.3,122c-7.07-1.14-12-5.23-14.85-11.76-3.28-7.48-.82-17,5.63-22.13a18.82,18.82,0,0,1,17.34-3.65A18.39,18.39,0,0,1,36.22,94a25,25,0,0,1,1.55,4c.31.93.52,1.17,1.54,1.17,2.78,0,5.57,0,8.35,0,.49,0,.64.1.72.62C48.72,102.11,49.13,104.49,49.56,107.16Zm-19-3.76a11.4,11.4,0,0,0-10.7-11.62A11.23,11.23,0,1,0,19,114.22,11.42,11.42,0,0,0,30.52,103.4Z"/><path class="cls-1" d="M172.25,107.1c.37-2.69.72-5.3,1.08-8h7.82a1,1,0,0,0,1.18-.92c1-5.12,4.11-8.83,8.39-11.52a18.3,18.3,0,0,1,14.58-2.38A18.57,18.57,0,0,1,219.41,98a19,19,0,0,1-9.26,21.82,19.23,19.23,0,0,1-26.86-8.92c-.41-.92-.65-1.92-1-2.85a1.49,1.49,0,0,0-.67-.75,3.22,3.22,0,0,0-1.27-.24c-2.52,0-5,0-7.56.05C172.62,107.15,172.48,107.12,172.25,107.1Zm28.63-15.32A11.22,11.22,0,1,0,212.06,103,11.28,11.28,0,0,0,200.88,91.78Z"/><path class="cls-2" d="M154.78,65.52c0,2.56,0,5.06,0,7.55-.13,6.76-.22,13.52-.47,20.27a85.37,85.37,0,0,1-2.63,18.53A50.91,50.91,0,0,1,134.34,139a109.9,109.9,0,0,1-16.78,11.32c-2.18,1.2-4.39,2.36-6.6,3.51a1,1,0,0,1-.78,0c-4-2.29-8.15-4.48-12.09-6.93a71.84,71.84,0,0,1-17.76-15,50.08,50.08,0,0,1-8.53-15,78.85,78.85,0,0,1-4.14-19.85c-.87-9.65-.84-19.32-1-29,0-.67,0-1.35,0-2,0-.5.12-.71.66-.78a99.17,99.17,0,0,0,14.79-3,94.63,94.63,0,0,0,27.5-12.41,1.49,1.49,0,0,1,1.94,0A94.94,94.94,0,0,0,125,57,98.52,98.52,0,0,0,142,63c4,1,8.11,1.6,12.18,2.38Zm-43.84,60.55c4.58,0,9.16,0,13.74,0a7.61,7.61,0,0,0,7.64-6.34,15.59,15.59,0,0,0,.14-2.82c0-6.3,0-12.6,0-18.9a7.68,7.68,0,0,0-5-7.16.92.92,0,0,1-.73-1.07c0-1.92.08-3.83,0-5.74-.29-6.58-3.4-11.44-9.36-14.15-5.65-2.57-11.15-1.76-16.06,2a15.24,15.24,0,0,0-6.14,12.28c0,1.65-.05,3.3,0,4.95A1.57,1.57,0,0,1,94,91a7.4,7.4,0,0,0-4.72,7.26c0,6.71,0,13.42,0,20.14a7.88,7.88,0,0,0,.68,3.22,7.36,7.36,0,0,0,7,4.47C101.64,126.1,106.29,126.07,110.94,126.07Z"/><path class="cls-2" d="M110.84,120.93c-4.44,0-8.87,0-13.31,0a4.27,4.27,0,0,1-1.88-.37,2.25,2.25,0,0,1-1.2-2.17q0-10.07,0-20.14c0-1.74.78-2.57,2.52-2.61,2.78-.05,5.57,0,8.36,0H123.8a12.44,12.44,0,0,1,1.37.07,2.26,2.26,0,0,1,2.07,2.16c0,.53,0,1.06,0,1.6q0,9.38,0,18.76a3.41,3.41,0,0,1-.39,1.57,2.21,2.21,0,0,1-2.12,1.15H110.84Zm-2.74-8.77h0c0,.56,0,1.12,0,1.67a2.67,2.67,0,0,0,5.34.08c.07-1,0-2.09.08-3.13a1.59,1.59,0,0,1,.42-1,5.06,5.06,0,0,0,1.52-2.74,4.74,4.74,0,0,0-8.6-3.46,4.47,4.47,0,0,0,.38,5.68,2.56,2.56,0,0,1,.84,2.29C108.09,111.77,108.1,112,108.1,112.16Z"/><path class="cls-2" d="M100.33,90.36c0-.47,0-.93,0-1.38a64.36,64.36,0,0,1,.22-6.52c.71-5.39,6.39-9.48,11.76-8.63a10.57,10.57,0,0,1,9.18,10.65c0,1.93,0,3.87,0,5.88Z"/></g></g></svg>