<?xml version="1.0" encoding="utf-8"?>
<!-- Generator: Adobe Illustrator 25.0.1, SVG Export Plug-In . SVG Version: 6.00 Build 0)  -->
<svg version="1.1" id="Layer_1" xmlns="http://www.w3.org/2000/svg" xmlns:xlink="http://www.w3.org/1999/xlink" x="0px" y="0px"
	 viewBox="0 0 123.2 143.3" style="enable-background:new 0 0 123.2 143.3;" xml:space="preserve">
<style type="text/css">
	.st0{fill:#203B72;}
	.st1{fill:#1E81CE;}
	.st2{fill:#4D4D4D;}
</style>
<g id="Layer_2_1_">
	<g id="Layer_1-2">
		<path class="st0" d="M60.5,0.7c1.7-1.4,3.8-0.4,5.3,0.7c13.6,8.6,29.4,13.1,45.3,15.4c4,0.6,8.1,0.3,12.1,1.3
			c0.1,13.9,0,27.7,0,41.6c-0.1,9,0.7,18.1-1.9,26.9c-4,17-16.4,30.7-30.2,40.8c-8.1,6.4-17.3,11.1-26.5,15.5
			c-2.3,1.2-4.9-0.2-7-1.1c-17.2-8.3-34.2-18.9-45.4-34.8c-3.8-6.2-7.8-12.6-9.5-19.8c-2.8-10.2-2.6-20.9-2.6-31.4
			C0.1,45.3,0,35,0,24.7c0.1-2.8-0.5-5.9,1-8.4c10.6,0.3,21.1-1,31.3-3.8C42.2,9.9,51.9,6.3,60.5,0.7z M41.3,14.7
			c-11.6,4.5-24.2,5.5-36.5,5.8C3.9,24.2,4.3,28,4.2,31.7c-0.1,10.3,0,20.6,0,31c0,12.2,1.9,24.6,8,35.3c9,16.2,24.4,27.7,40.6,36.1
			c3.4,1.5,6.7,4,10.5,4.3c14.1-6.5,27.5-15.3,38.1-26.7c11.6-11,17.8-27.2,17.4-43.1c-0.2-15.5-0.1-30.9-0.1-46.4
			c-10-1.1-20-2.3-29.6-5.4c-9.4-2.5-18.1-7-26.7-11.6C55.8,9.1,48.7,12.3,41.3,14.7z"/>
		<path class="st1" d="M60.5,23.8l1.8-0.5c10.3,2.1,19.9,6.8,28,13.5c11.5,11,18,28.3,13.2,44C98.5,98.4,84,112,67.4,118.7
			c-1.9,0.6-3.8,2.5-5.9,1.4c-8.1-3.8-16.1-8-23.1-13.6c-6.1-5.8-12.9-11.3-16.2-19.2c-3.4-7.7-5-16.3-3.4-24.6
			c1.3-9.9,6.8-18.9,14.4-25.3C40.9,30.6,50.7,26.6,60.5,23.8z M59.8,30c-3.8,4.6-6.3,10.1-7.4,15.9c6.5,0,13,0,19.5,0
			C70.6,40,68.6,34,64.2,29.7c-1.1-1.1-2.9-1.1-4.1,0C60,29.7,59.9,29.9,59.8,30z M70.5,30.2c3.1,4.9,5,10.3,6.7,15.8
			c5.1,0,10.1,0.1,15.2-0.1C87,38.5,78.8,33.7,70.5,30.2z M31.2,46c5.4,0.1,10.9,0,16.4-0.2c1.5-5.3,3.7-10.3,6.5-15
			C45,33.2,37.3,39.1,31.2,46z M27.7,51.1c-4.2,6.4-5.3,14.3-4.7,21.8c7,0.1,14.1-0.1,21.1,0c0.1-7.5,0.7-15.1,1.9-22.5
			C40,50.9,33.8,50.8,27.7,51.1z M50.8,50.9c-1.3,7.2-2,14.5-2.1,21.7c2.9,0.2,5.8-0.1,8.7-0.1c6.1-0.1,12.2,0,18.4-0.1
			c-0.4-7.4-0.5-15-2.9-22.1C65.6,50.6,58.2,50.1,50.8,50.9z M78.5,50.9c0.5,4.9,1.5,9.8,1.6,14.7c0.1,2.5-0.3,5.1,0.7,7.5
			c6.5-0.2,12.9-0.1,19.4-0.1c0.6-7.7-1-15.3-4.8-22.1C89.8,50.8,84.1,50.8,78.5,50.9z M23.8,77.3c1.5,6.3,4.6,12.2,8.9,17
			c0.8,0.7,1.5,1.9,2.8,1.9c3.6,0.2,7.2,0,10.9,0.1c-1-6.3-1.6-12.6-2.4-18.9C37.3,77.4,30.5,77.3,23.8,77.3z M48.7,77.3
			c0.1,6.3,1.6,12.5,2.5,18.8c7.2,0.4,14.4,0.1,21.6,0.2c1.6-6.2,2.6-12.6,3-19C66.8,77.1,57.8,77.2,48.7,77.3z M80,77.8
			c-0.3,6.2-1.1,12.4-2.5,18.5c4.3,0,8.6,0,13-0.1c2.3-3.3,4.3-6.8,6-10.4c1.2-2.7,2.8-5.4,2.5-8.4C92.7,77.6,86.3,77.4,80,77.8z
			 M37.9,101.3h1.2c3.8,3.9,8.6,6.6,13.3,9.2c-1.3-3.2-3.2-6.2-3.9-9.6c-1.9-0.9-4.1-0.6-6.1-0.7C40.8,100.3,39,99.9,37.9,101.3z
			 M52.7,101c2.2,5.4,4.7,11,9.8,14.2c5.1-2.9,7.3-8.9,8.7-14.2C65,101,58.8,100.8,52.7,101z M76.3,101c-1.3,3.7-3.1,7.3-5.3,10.6
			c6.1-1.9,10.7-6.5,15.4-10.6C83.1,100.9,79.7,100.9,76.3,101L76.3,101z"/>
		<path class="st2" d="M37.9,101.3c1.1-1.3,2.9-0.9,4.5-1c2,0.1,4.2-0.2,6.1,0.7c-3.2,0.1-6.3,0.1-9.4,0.3H37.9z"/>
	</g>
</g>
</svg>
