<svg width="30" height="30" viewBox="0 0 30 30" fill="none" xmlns="http://www.w3.org/2000/svg">
<path d="M10 10V8.75C10 7.42392 10.5268 6.15215 11.4645 5.21447C12.4021 4.27678 13.6739 3.75 15 3.75C16.3261 3.75 17.5979 4.27678 18.5355 5.21447C19.4732 6.15215 20 7.42392 20 8.75V10M18.75 17.5V15M11.25 17.5V15" stroke="black" stroke-width="2.5" stroke-linecap="round"/>
<path d="M5 15C5 12.6425 5 11.465 5.7325 10.7325C6.465 10 7.6425 10 10 10H20C22.3575 10 23.535 10 24.2675 10.7325C25 11.465 25 12.6425 25 15V16.25C25 20.9637 25 23.3212 23.535 24.785C22.07 26.2487 19.7137 26.25 15 26.25C10.2863 26.25 7.92875 26.25 6.465 24.785C5.00125 23.32 5 20.9637 5 16.25V15Z" stroke="black" stroke-width="2.5"/>
</svg>
